<mxfile host="app.diagrams.net" modified="2020-08-10T18:15:45.285Z" agent="5.0 (Windows NT 10.0; Win64; x64) AppleWebKit/537.36 (KHTML, like Gecko) Chrome/84.0.4147.105 Safari/537.36" etag="WQnIMnShyn00Dpfwa7c3" version="13.6.2" type="github">
  <diagram id="VdX4nvcZNgionV7-Nm-4" name="Page-1">
    <mxGraphModel dx="1422" dy="762" grid="1" gridSize="10" guides="1" tooltips="1" connect="1" arrows="1" fold="1" page="1" pageScale="1" pageWidth="850" pageHeight="1100" math="0" shadow="0">
      <root>
        <mxCell id="0" />
        <mxCell id="1" parent="0" />
        <mxCell id="rQCoI73Vv0igahnDDfWM-11" value="" style="edgeStyle=orthogonalEdgeStyle;rounded=0;orthogonalLoop=1;jettySize=auto;html=1;" edge="1" parent="1" source="rQCoI73Vv0igahnDDfWM-9" target="rQCoI73Vv0igahnDDfWM-10">
          <mxGeometry relative="1" as="geometry" />
        </mxCell>
        <mxCell id="rQCoI73Vv0igahnDDfWM-9" value="start" style="ellipse;whiteSpace=wrap;html=1;aspect=fixed;" vertex="1" parent="1">
          <mxGeometry x="400" y="20" width="80" height="80" as="geometry" />
        </mxCell>
        <mxCell id="rQCoI73Vv0igahnDDfWM-13" value="" style="edgeStyle=orthogonalEdgeStyle;rounded=0;orthogonalLoop=1;jettySize=auto;html=1;" edge="1" parent="1" source="rQCoI73Vv0igahnDDfWM-10" target="rQCoI73Vv0igahnDDfWM-12">
          <mxGeometry relative="1" as="geometry" />
        </mxCell>
        <mxCell id="rQCoI73Vv0igahnDDfWM-10" value="init: ultrasonic, servo, motors" style="whiteSpace=wrap;html=1;rounded=1;" vertex="1" parent="1">
          <mxGeometry x="380" y="120" width="120" height="60" as="geometry" />
        </mxCell>
        <mxCell id="rQCoI73Vv0igahnDDfWM-17" value="" style="edgeStyle=orthogonalEdgeStyle;rounded=0;orthogonalLoop=1;jettySize=auto;html=1;" edge="1" parent="1" source="rQCoI73Vv0igahnDDfWM-12" target="rQCoI73Vv0igahnDDfWM-16">
          <mxGeometry relative="1" as="geometry" />
        </mxCell>
        <mxCell id="rQCoI73Vv0igahnDDfWM-12" value="read distance" style="whiteSpace=wrap;html=1;rounded=1;" vertex="1" parent="1">
          <mxGeometry x="380" y="210" width="120" height="60" as="geometry" />
        </mxCell>
        <mxCell id="rQCoI73Vv0igahnDDfWM-19" value="" style="edgeStyle=orthogonalEdgeStyle;rounded=0;orthogonalLoop=1;jettySize=auto;html=1;" edge="1" parent="1" source="rQCoI73Vv0igahnDDfWM-16" target="rQCoI73Vv0igahnDDfWM-18">
          <mxGeometry relative="1" as="geometry" />
        </mxCell>
        <mxCell id="rQCoI73Vv0igahnDDfWM-21" value="" style="edgeStyle=orthogonalEdgeStyle;rounded=0;orthogonalLoop=1;jettySize=auto;html=1;" edge="1" parent="1" source="rQCoI73Vv0igahnDDfWM-16" target="rQCoI73Vv0igahnDDfWM-20">
          <mxGeometry relative="1" as="geometry" />
        </mxCell>
        <mxCell id="rQCoI73Vv0igahnDDfWM-16" value="if(distance &amp;lt;= 20)" style="whiteSpace=wrap;html=1;rounded=1;" vertex="1" parent="1">
          <mxGeometry x="380" y="300" width="120" height="60" as="geometry" />
        </mxCell>
        <mxCell id="rQCoI73Vv0igahnDDfWM-23" value="" style="edgeStyle=orthogonalEdgeStyle;rounded=0;orthogonalLoop=1;jettySize=auto;html=1;" edge="1" parent="1" source="rQCoI73Vv0igahnDDfWM-18" target="rQCoI73Vv0igahnDDfWM-22">
          <mxGeometry relative="1" as="geometry" />
        </mxCell>
        <mxCell id="rQCoI73Vv0igahnDDfWM-18" value="turn servo left&amp;nbsp;" style="whiteSpace=wrap;html=1;rounded=1;" vertex="1" parent="1">
          <mxGeometry x="380" y="390" width="120" height="60" as="geometry" />
        </mxCell>
        <mxCell id="rQCoI73Vv0igahnDDfWM-20" value="move forward" style="whiteSpace=wrap;html=1;rounded=1;" vertex="1" parent="1">
          <mxGeometry x="550" y="300" width="120" height="60" as="geometry" />
        </mxCell>
        <mxCell id="rQCoI73Vv0igahnDDfWM-25" value="" style="edgeStyle=orthogonalEdgeStyle;rounded=0;orthogonalLoop=1;jettySize=auto;html=1;" edge="1" parent="1" source="rQCoI73Vv0igahnDDfWM-22" target="rQCoI73Vv0igahnDDfWM-24">
          <mxGeometry relative="1" as="geometry" />
        </mxCell>
        <mxCell id="rQCoI73Vv0igahnDDfWM-22" value="read distance" style="whiteSpace=wrap;html=1;rounded=1;" vertex="1" parent="1">
          <mxGeometry x="380" y="480" width="120" height="60" as="geometry" />
        </mxCell>
        <mxCell id="rQCoI73Vv0igahnDDfWM-28" value="" style="edgeStyle=orthogonalEdgeStyle;rounded=0;orthogonalLoop=1;jettySize=auto;html=1;" edge="1" parent="1" source="rQCoI73Vv0igahnDDfWM-24" target="rQCoI73Vv0igahnDDfWM-27">
          <mxGeometry relative="1" as="geometry" />
        </mxCell>
        <mxCell id="rQCoI73Vv0igahnDDfWM-41" value="" style="edgeStyle=orthogonalEdgeStyle;rounded=0;orthogonalLoop=1;jettySize=auto;html=1;" edge="1" parent="1" source="rQCoI73Vv0igahnDDfWM-24" target="rQCoI73Vv0igahnDDfWM-40">
          <mxGeometry relative="1" as="geometry" />
        </mxCell>
        <mxCell id="rQCoI73Vv0igahnDDfWM-24" value="&#xa;&#xa;&lt;span style=&quot;color: rgb(0, 0, 0); font-family: helvetica; font-size: 12px; font-style: normal; font-weight: 400; letter-spacing: normal; text-align: center; text-indent: 0px; text-transform: none; word-spacing: 0px; background-color: rgb(248, 249, 250); display: inline; float: none;&quot;&gt;if(distance &amp;lt;= 20)&lt;/span&gt;&#xa;&#xa;" style="whiteSpace=wrap;html=1;rounded=1;" vertex="1" parent="1">
          <mxGeometry x="380" y="560" width="120" height="60" as="geometry" />
        </mxCell>
        <mxCell id="rQCoI73Vv0igahnDDfWM-31" value="" style="edgeStyle=orthogonalEdgeStyle;rounded=0;orthogonalLoop=1;jettySize=auto;html=1;" edge="1" parent="1" source="rQCoI73Vv0igahnDDfWM-27" target="rQCoI73Vv0igahnDDfWM-30">
          <mxGeometry relative="1" as="geometry" />
        </mxCell>
        <mxCell id="rQCoI73Vv0igahnDDfWM-27" value="turn servo right" style="whiteSpace=wrap;html=1;rounded=1;" vertex="1" parent="1">
          <mxGeometry x="380" y="650" width="120" height="60" as="geometry" />
        </mxCell>
        <mxCell id="rQCoI73Vv0igahnDDfWM-38" value="" style="edgeStyle=orthogonalEdgeStyle;rounded=0;orthogonalLoop=1;jettySize=auto;html=1;" edge="1" parent="1" source="rQCoI73Vv0igahnDDfWM-30" target="rQCoI73Vv0igahnDDfWM-39">
          <mxGeometry relative="1" as="geometry">
            <mxPoint x="440" y="880" as="targetPoint" />
          </mxGeometry>
        </mxCell>
        <mxCell id="rQCoI73Vv0igahnDDfWM-30" value="&lt;span&gt;read distance&lt;/span&gt;" style="whiteSpace=wrap;html=1;rounded=1;" vertex="1" parent="1">
          <mxGeometry x="380" y="740" width="120" height="60" as="geometry" />
        </mxCell>
        <mxCell id="rQCoI73Vv0igahnDDfWM-34" value="" style="endArrow=classic;html=1;" edge="1" parent="1" source="rQCoI73Vv0igahnDDfWM-24">
          <mxGeometry width="50" height="50" relative="1" as="geometry">
            <mxPoint x="360" y="610" as="sourcePoint" />
            <mxPoint x="410" y="560" as="targetPoint" />
          </mxGeometry>
        </mxCell>
        <mxCell id="rQCoI73Vv0igahnDDfWM-36" value="" style="endArrow=classic;html=1;exitX=0.5;exitY=0;exitDx=0;exitDy=0;entryX=1;entryY=0.5;entryDx=0;entryDy=0;rounded=0;" edge="1" parent="1" source="rQCoI73Vv0igahnDDfWM-20" target="rQCoI73Vv0igahnDDfWM-12">
          <mxGeometry width="50" height="50" relative="1" as="geometry">
            <mxPoint x="360" y="410" as="sourcePoint" />
            <mxPoint x="410" y="360" as="targetPoint" />
            <Array as="points">
              <mxPoint x="610" y="240" />
            </Array>
          </mxGeometry>
        </mxCell>
        <mxCell id="rQCoI73Vv0igahnDDfWM-44" value="" style="edgeStyle=orthogonalEdgeStyle;rounded=0;orthogonalLoop=1;jettySize=auto;html=1;" edge="1" parent="1" source="rQCoI73Vv0igahnDDfWM-39" target="rQCoI73Vv0igahnDDfWM-43">
          <mxGeometry relative="1" as="geometry" />
        </mxCell>
        <mxCell id="rQCoI73Vv0igahnDDfWM-49" value="" style="edgeStyle=orthogonalEdgeStyle;rounded=0;orthogonalLoop=1;jettySize=auto;html=1;" edge="1" parent="1" source="rQCoI73Vv0igahnDDfWM-39" target="rQCoI73Vv0igahnDDfWM-48">
          <mxGeometry relative="1" as="geometry" />
        </mxCell>
        <mxCell id="rQCoI73Vv0igahnDDfWM-39" value="&lt;span style=&quot;color: rgb(0 , 0 , 0) ; font-size: 12px ; font-style: normal ; font-weight: 400 ; letter-spacing: normal ; text-align: center ; text-indent: 0px ; text-transform: none ; word-spacing: 0px ; font-family: &amp;#34;helvetica&amp;#34; ; background-color: rgb(248 , 249 , 250) ; display: inline ; float: none&quot;&gt;if(distance &amp;lt;= 20)&lt;/span&gt;" style="rounded=1;whiteSpace=wrap;html=1;" vertex="1" parent="1">
          <mxGeometry x="380" y="830" width="120" height="60" as="geometry" />
        </mxCell>
        <mxCell id="rQCoI73Vv0igahnDDfWM-40" value="turn robot left" style="whiteSpace=wrap;html=1;rounded=1;" vertex="1" parent="1">
          <mxGeometry x="550" y="560" width="120" height="60" as="geometry" />
        </mxCell>
        <mxCell id="rQCoI73Vv0igahnDDfWM-42" value="" style="endArrow=classic;html=1;exitX=0.5;exitY=0;exitDx=0;exitDy=0;entryX=0.5;entryY=1;entryDx=0;entryDy=0;" edge="1" parent="1" source="rQCoI73Vv0igahnDDfWM-40" target="rQCoI73Vv0igahnDDfWM-20">
          <mxGeometry width="50" height="50" relative="1" as="geometry">
            <mxPoint x="360" y="630" as="sourcePoint" />
            <mxPoint x="410" y="580" as="targetPoint" />
          </mxGeometry>
        </mxCell>
        <mxCell id="rQCoI73Vv0igahnDDfWM-43" value="move backwards" style="whiteSpace=wrap;html=1;rounded=1;" vertex="1" parent="1">
          <mxGeometry x="380" y="920" width="120" height="60" as="geometry" />
        </mxCell>
        <mxCell id="rQCoI73Vv0igahnDDfWM-48" value="turn robot right" style="whiteSpace=wrap;html=1;rounded=1;" vertex="1" parent="1">
          <mxGeometry x="550" y="830" width="120" height="60" as="geometry" />
        </mxCell>
        <mxCell id="rQCoI73Vv0igahnDDfWM-50" value="" style="endArrow=classic;html=1;exitX=1;exitY=0.5;exitDx=0;exitDy=0;entryX=1;entryY=0.5;entryDx=0;entryDy=0;strokeColor=none;rounded=0;" edge="1" parent="1" source="rQCoI73Vv0igahnDDfWM-48" target="rQCoI73Vv0igahnDDfWM-20">
          <mxGeometry width="50" height="50" relative="1" as="geometry">
            <mxPoint x="360" y="740" as="sourcePoint" />
            <mxPoint x="410" y="690" as="targetPoint" />
            <Array as="points">
              <mxPoint x="740" y="860" />
              <mxPoint x="740" y="330" />
            </Array>
          </mxGeometry>
        </mxCell>
        <mxCell id="rQCoI73Vv0igahnDDfWM-51" value="" style="endArrow=classic;html=1;exitX=1;exitY=0.5;exitDx=0;exitDy=0;entryX=1;entryY=0.5;entryDx=0;entryDy=0;rounded=0;" edge="1" parent="1" source="rQCoI73Vv0igahnDDfWM-48" target="rQCoI73Vv0igahnDDfWM-20">
          <mxGeometry width="50" height="50" relative="1" as="geometry">
            <mxPoint x="360" y="740" as="sourcePoint" />
            <mxPoint x="410" y="690" as="targetPoint" />
            <Array as="points">
              <mxPoint x="720" y="860" />
              <mxPoint x="720" y="330" />
            </Array>
          </mxGeometry>
        </mxCell>
        <mxCell id="rQCoI73Vv0igahnDDfWM-52" value="" style="endArrow=classic;html=1;exitX=0;exitY=0.5;exitDx=0;exitDy=0;entryX=0;entryY=0.5;entryDx=0;entryDy=0;rounded=0;" edge="1" parent="1" source="rQCoI73Vv0igahnDDfWM-43" target="rQCoI73Vv0igahnDDfWM-18">
          <mxGeometry width="50" height="50" relative="1" as="geometry">
            <mxPoint x="370" y="900" as="sourcePoint" />
            <mxPoint x="410" y="630" as="targetPoint" />
            <Array as="points">
              <mxPoint x="320" y="950" />
              <mxPoint x="320" y="420" />
            </Array>
          </mxGeometry>
        </mxCell>
      </root>
    </mxGraphModel>
  </diagram>
</mxfile>
